<svg width="53" height="53" viewBox="0 0 53 53" fill="none" xmlns="http://www.w3.org/2000/svg">
<path fill-rule="evenodd" clip-rule="evenodd" d="M0 45.2794H6.34896V2.79484C6.34896 2.42391 6.65519 2.11768 7.02612 2.11768H28.5315C28.9024 2.11768 29.2087 2.42391 29.2087 2.79484V18.7233H48.2383C48.6092 18.7233 48.9155 19.0295 48.9155 19.4005V45.2751H53V50.8778H0V45.2794ZM11.7835 8.50977H16.1829C16.3167 8.50977 16.4288 8.62191 16.4288 8.75562V14.0867C16.4288 14.2204 16.3167 14.3325 16.1829 14.3325H11.7835C11.6498 14.3325 11.5377 14.2204 11.5377 14.0867V8.75562C11.5377 8.62191 11.6498 8.50977 11.7835 8.50977ZM19.2367 35.027H23.6361C23.7698 35.027 23.8819 35.1392 23.8819 35.2729V40.6039C23.8819 40.7376 23.7698 40.8498 23.6361 40.8498H19.2367C19.1029 40.8498 18.9908 40.7376 18.9908 40.6039V35.2729C18.9908 35.1348 19.1029 35.027 19.2367 35.027ZM11.7835 35.027H16.1829C16.3167 35.027 16.4288 35.1392 16.4288 35.2729V40.6039C16.4288 40.7376 16.3167 40.8498 16.1829 40.8498H11.7835C11.6498 40.8498 11.5377 40.7376 11.5377 40.6039V35.2729C11.5377 35.1348 11.6498 35.027 11.7835 35.027ZM19.2367 26.1851H23.6361C23.7698 26.1851 23.8819 26.2972 23.8819 26.4309V31.762C23.8819 31.8957 23.7698 32.0078 23.6361 32.0078H19.2367C19.1029 32.0078 18.9908 31.8957 18.9908 31.762V26.4352C18.9908 26.2972 19.1029 26.1851 19.2367 26.1851ZM11.7835 26.1851H16.1829C16.3167 26.1851 16.4288 26.2972 16.4288 26.4309V31.762C16.4288 31.8957 16.3167 32.0078 16.1829 32.0078H11.7835C11.6498 32.0078 11.5377 31.8957 11.5377 31.762V26.4352C11.5377 26.2972 11.6498 26.1851 11.7835 26.1851ZM19.2367 17.3474H23.6361C23.7698 17.3474 23.8819 17.4596 23.8819 17.5933V22.9243C23.8819 23.058 23.7698 23.1702 23.6361 23.1702H19.2367C19.1029 23.1702 18.9908 23.058 18.9908 22.9243V17.5933C18.9908 17.4596 19.1029 17.3474 19.2367 17.3474ZM11.7835 17.3474H16.1829C16.3167 17.3474 16.4288 17.4596 16.4288 17.5933V22.9243C16.4288 23.058 16.3167 23.1702 16.1829 23.1702H11.7835C11.6498 23.1702 11.5377 23.058 11.5377 22.9243V17.5933C11.5377 17.4596 11.6498 17.3474 11.7835 17.3474ZM19.2367 8.50977H23.6361C23.7698 8.50977 23.8819 8.62191 23.8819 8.75562V14.0867C23.8819 14.2204 23.7698 14.3325 23.6361 14.3325H19.2367C19.1029 14.3325 18.9908 14.2204 18.9908 14.0867V8.75562C18.9908 8.62191 19.1029 8.50977 19.2367 8.50977ZM9.99357 5.2749H25.4864C25.7538 5.2749 25.9738 5.538 25.9738 5.85718V42.8942C25.9738 43.2134 25.7538 43.4765 25.4864 43.4765H9.99357C9.72616 43.4765 9.50619 43.2134 9.50619 42.8942V5.85718C9.50619 5.538 9.72616 5.2749 9.99357 5.2749ZM31.3178 25.1628H35.7172C35.8509 25.1628 35.9631 25.275 35.9631 25.4087V30.7397C35.9631 30.8735 35.8509 30.9856 35.7172 30.9856H31.3178C31.1841 30.9856 31.0719 30.8735 31.0719 30.7397V25.4087C31.0719 25.275 31.1841 25.1628 31.3178 25.1628ZM38.7709 35.027H43.1703C43.304 35.027 43.4162 35.1392 43.4162 35.2729V40.6039C43.4162 40.7376 43.304 40.8498 43.1703 40.8498H38.7709C38.6372 40.8498 38.5251 40.7376 38.5251 40.6039V35.2729C38.5251 35.1348 38.6372 35.027 38.7709 35.027ZM31.3178 35.027H35.7172C35.8509 35.027 35.9631 35.1392 35.9631 35.2729V40.6039C35.9631 40.7376 35.8509 40.8498 35.7172 40.8498H31.3178C31.1841 40.8498 31.0719 40.7376 31.0719 40.6039V35.2729C31.0719 35.1348 31.1841 35.027 31.3178 35.027ZM38.7709 25.1628H43.1703C43.304 25.1628 43.4162 25.275 43.4162 25.4087V30.7397C43.4162 30.8735 43.304 30.9856 43.1703 30.9856H38.7709C38.6372 30.9856 38.5251 30.8735 38.5251 30.7397V25.4087C38.5251 25.275 38.6372 25.1628 38.7709 25.1628ZM29.7004 21.8805H45.1932C45.4606 21.8805 45.6806 22.1436 45.6806 22.4628V42.8942C45.6806 43.2134 45.4606 43.4765 45.1932 43.4765H29.7004C29.4329 43.4765 29.213 43.2134 29.213 42.8942V22.4628C29.213 22.1436 29.4329 21.8805 29.7004 21.8805Z" fill="#8B1A2F" stroke="#8B1A2F" stroke-width="0.00093"/>
</svg>
