<svg width="52" height="52" viewBox="0 0 52 52" fill="none" xmlns="http://www.w3.org/2000/svg">
<g clip-path="url(#clip0_95_196)">
<path d="M14.625 8.125V52H21.9375V43.0625C21.9375 42.6132 22.3007 42.25 22.75 42.25H29.25C29.6993 42.25 30.0625 42.6132 30.0625 43.0625V52H37.375V16.25V3.25C37.375 1.45356 35.9214 0 34.125 0H17.875C16.0786 0 14.625 1.45356 14.625 3.25V8.125ZM27.625 7.3125C27.625 6.86319 27.9882 6.5 28.4375 6.5H31.6875C32.1368 6.5 32.5 6.86319 32.5 7.3125V10.5625C32.5 11.0118 32.1368 11.375 31.6875 11.375H28.4375C27.9882 11.375 27.625 11.0118 27.625 10.5625V7.3125ZM27.625 15.4375C27.625 14.9882 27.9882 14.625 28.4375 14.625H31.6875C32.1368 14.625 32.5 14.9882 32.5 15.4375V18.6875C32.5 19.1368 32.1368 19.5 31.6875 19.5H28.4375C27.9882 19.5 27.625 19.1368 27.625 18.6875V15.4375ZM27.625 23.5625C27.625 23.1132 27.9882 22.75 28.4375 22.75H31.6875C32.1368 22.75 32.5 23.1132 32.5 23.5625V26.8125C32.5 27.2618 32.1368 27.625 31.6875 27.625H28.4375C27.9882 27.625 27.625 27.2618 27.625 26.8125V23.5625ZM27.625 31.6875C27.625 31.2382 27.9882 30.875 28.4375 30.875H31.6875C32.1368 30.875 32.5 31.2382 32.5 31.6875V34.9375C32.5 35.3868 32.1368 35.75 31.6875 35.75H28.4375C27.9882 35.75 27.625 35.3868 27.625 34.9375V31.6875ZM19.5 7.3125C19.5 6.86319 19.8632 6.5 20.3125 6.5H23.5625C24.0118 6.5 24.375 6.86319 24.375 7.3125V10.5625C24.375 11.0118 24.0118 11.375 23.5625 11.375H20.3125C19.8632 11.375 19.5 11.0118 19.5 10.5625V7.3125ZM19.5 15.4375C19.5 14.9882 19.8632 14.625 20.3125 14.625H23.5625C24.0118 14.625 24.375 14.9882 24.375 15.4375V18.6875C24.375 19.1368 24.0118 19.5 23.5625 19.5H20.3125C19.8632 19.5 19.5 19.1368 19.5 18.6875V15.4375ZM19.5 23.5625C19.5 23.1132 19.8632 22.75 20.3125 22.75H23.5625C24.0118 22.75 24.375 23.1132 24.375 23.5625V26.8125C24.375 27.2618 24.0118 27.625 23.5625 27.625H20.3125C19.8632 27.625 19.5 27.2618 19.5 26.8125V23.5625ZM19.5 31.6875C19.5 31.2382 19.8632 30.875 20.3125 30.875H23.5625C24.0118 30.875 24.375 31.2382 24.375 31.6875V34.9375C24.375 35.3868 24.0118 35.75 23.5625 35.75H20.3125C19.8632 35.75 19.5 35.3868 19.5 34.9375V31.6875Z" fill="#8B1A2F" stroke="#8B1A2F" stroke-width="0.00092"/>
<path d="M22.75 24.375H21.125V26H22.75V24.375Z" fill="#8B1A2F" stroke="#8B1A2F" stroke-width="0.00092"/>
<path d="M22.75 32.5H21.125V34.125H22.75V32.5Z" fill="#8B1A2F" stroke="#8B1A2F" stroke-width="0.00092"/>
<path d="M28.4375 43.875H23.5625V52H28.4375V43.875Z" fill="#8B1A2F" stroke="#8B1A2F" stroke-width="0.00092"/>
<path d="M8.125 40.625H6.5V42.25H8.125V40.625Z" fill="#8B1A2F" stroke="#8B1A2F" stroke-width="0.00092"/>
<path d="M22.75 8.125H21.125V9.75H22.75V8.125Z" fill="#8B1A2F" stroke="#8B1A2F" stroke-width="0.00092"/>
<path d="M22.75 16.25H21.125V17.875H22.75V16.25Z" fill="#8B1A2F" stroke="#8B1A2F" stroke-width="0.00092"/>
<path d="M30.875 16.25H29.25V17.875H30.875V16.25Z" fill="#8B1A2F" stroke="#8B1A2F" stroke-width="0.00092"/>
<path d="M30.875 8.125H29.25V9.75H30.875V8.125Z" fill="#8B1A2F" stroke="#8B1A2F" stroke-width="0.00092"/>
<path d="M30.875 24.375H29.25V26H30.875V24.375Z" fill="#8B1A2F" stroke="#8B1A2F" stroke-width="0.00092"/>
<path d="M30.875 32.5H29.25V34.125H30.875V32.5Z" fill="#8B1A2F" stroke="#8B1A2F" stroke-width="0.00092"/>
<path d="M8.125 32.5H6.5V34.125H8.125V32.5Z" fill="#8B1A2F" stroke="#8B1A2F" stroke-width="0.00092"/>
<path d="M13 8.125H3.25C1.45356 8.125 0 9.57856 0 11.375V48.75C0 50.5464 1.45356 52 3.25 52H13V8.125ZM9.75 43.0625C9.75 43.5118 9.38681 43.875 8.9375 43.875H5.6875C5.23819 43.875 4.875 43.5118 4.875 43.0625V39.8125C4.875 39.3632 5.23819 39 5.6875 39H8.9375C9.38681 39 9.75 39.3632 9.75 39.8125V43.0625ZM9.75 34.9375C9.75 35.3868 9.38681 35.75 8.9375 35.75H5.6875C5.23819 35.75 4.875 35.3868 4.875 34.9375V31.6875C4.875 31.2382 5.23819 30.875 5.6875 30.875H8.9375C9.38681 30.875 9.75 31.2382 9.75 31.6875V34.9375ZM9.75 26.8125C9.75 27.2618 9.38681 27.625 8.9375 27.625H5.6875C5.23819 27.625 4.875 27.2618 4.875 26.8125V23.5625C4.875 23.1132 5.23819 22.75 5.6875 22.75H8.9375C9.38681 22.75 9.75 23.1132 9.75 23.5625V26.8125ZM8.9375 19.5H5.6875C5.23819 19.5 4.875 19.1368 4.875 18.6875V15.4375C4.875 14.9882 5.23819 14.625 5.6875 14.625H8.9375C9.38681 14.625 9.75 14.9882 9.75 15.4375V18.6875C9.75 19.1368 9.38681 19.5 8.9375 19.5Z" fill="#8B1A2F" stroke="#8B1A2F" stroke-width="0.00092"/>
<path d="M45.5 40.625H43.875V42.25H45.5V40.625Z" fill="#8B1A2F" stroke="#8B1A2F" stroke-width="0.00092"/>
<path d="M45.5 32.5H43.875V34.125H45.5V32.5Z" fill="#8B1A2F" stroke="#8B1A2F" stroke-width="0.00092"/>
<path d="M45.5 24.375H43.875V26H45.5V24.375Z" fill="#8B1A2F" stroke="#8B1A2F" stroke-width="0.00092"/>
<path d="M48.75 16.25H39V52H48.75C50.5464 52 52 50.5464 52 48.75V19.5C52 17.7036 50.5464 16.25 48.75 16.25ZM47.125 43.0625C47.125 43.5118 46.7618 43.875 46.3125 43.875H43.0625C42.6132 43.875 42.25 43.5118 42.25 43.0625V39.8125C42.25 39.3632 42.6132 39 43.0625 39H46.3125C46.7618 39 47.125 39.3632 47.125 39.8125V43.0625ZM47.125 34.9375C47.125 35.3868 46.7618 35.75 46.3125 35.75H43.0625C42.6132 35.75 42.25 35.3868 42.25 34.9375V31.6875C42.25 31.2382 42.6132 30.875 43.0625 30.875H46.3125C46.7618 30.875 47.125 31.2382 47.125 31.6875V34.9375ZM47.125 26.8125C47.125 27.2618 46.7618 27.625 46.3125 27.625H43.0625C42.6132 27.625 42.25 27.2618 42.25 26.8125V23.5625C42.25 23.1132 42.6132 22.75 43.0625 22.75H46.3125C46.7618 22.75 47.125 23.1132 47.125 23.5625V26.8125Z" fill="#8B1A2F" stroke="#8B1A2F" stroke-width="0.00092"/>
<path d="M8.125 24.375H6.5V26H8.125V24.375Z" fill="#8B1A2F" stroke="#8B1A2F" stroke-width="0.00092"/>
<path d="M8.125 16.25H6.5V17.875H8.125V16.25Z" fill="#8B1A2F" stroke="#8B1A2F" stroke-width="0.00092"/>
</g>
<defs>
<clipPath id="clip0_95_196">
<rect width="52" height="52" fill="white"/>
</clipPath>
</defs>
</svg>
