<svg width="64" height="64" viewBox="0 0 64 64" fill="none" xmlns="http://www.w3.org/2000/svg">
<path d="M39.3327 16.4987C40.3619 16.37 41.391 17.1418 41.391 18.171L44.7356 49.946C44.8643 50.9752 44.0924 52.0043 43.0632 52.0043L11.417 55.3489C10.3878 55.4776 9.3587 54.7057 9.3587 53.6765L6.01403 22.0303C5.88537 21.0011 6.65723 19.972 7.68643 19.972L39.3327 16.4987Z" stroke="#8B1A2F" stroke-width="1.33333" stroke-linecap="round" stroke-linejoin="round"/>
<path d="M17.2057 25.2463C14.8901 25.5036 13.0892 27.5619 13.3464 30.0061C13.6037 32.3217 15.662 34.1227 18.1062 33.8655C20.4218 33.6081 22.2228 31.5499 21.9656 29.1056C21.7084 26.6613 19.5213 24.9891 17.2057 25.2463ZM28.9122 32.7076L22.7373 40.2976C22.48 40.5549 22.0941 40.6835 21.8368 40.4263L20.4217 39.2686C20.1644 39.0112 19.6498 39.1399 19.5212 39.3972L12.8317 47.6304C12.5744 47.8878 12.5744 48.4023 12.9604 48.531C12.8317 48.6596 13.089 48.6596 13.2177 48.6596L39.8469 45.8295C40.2328 45.8295 40.4901 45.4436 40.4901 45.0576C40.4901 44.929 40.3614 44.8003 40.3614 44.6717L29.9413 32.5792C29.5554 32.4505 29.1696 32.4503 28.9122 32.7076Z" stroke="#8B1A2F" stroke-width="1.33333" stroke-linecap="round" stroke-linejoin="round"/>
<path d="M21.709 18.4282L22.6095 10.3236C22.7382 9.29444 23.6387 8.52257 24.6678 8.65124L56.314 11.9959C57.3432 12.1246 58.1151 13.0251 57.9864 14.0542L54.6418 45.7004C54.6418 46.601 53.6126 47.3728 52.5835 47.3728L44.3503 46.4723" stroke="#8B1A2F" stroke-width="1.33333" stroke-linecap="round" stroke-linejoin="round"/>
<path d="M43.7062 39.9115L50.7815 40.6834C51.1674 40.6834 51.4247 40.4261 51.5534 40.0402C51.5534 39.9115 51.5534 39.7829 51.4248 39.6543L43.7061 25.6322C43.5774 25.3749 43.0629 25.2463 42.8055 25.3749L42.291 25.8894" stroke="#8B1A2F" stroke-width="1.33333" stroke-linecap="round" stroke-linejoin="round"/>
</svg>
