<svg width="36" height="40" viewBox="0 0 36 40" fill="none" xmlns="http://www.w3.org/2000/svg">
<path d="M21.7615 17.3535C21.7615 16.9466 21.4327 16.6178 21.0258 16.6178C20.6189 16.6178 20.2901 16.9466 20.2901 17.3535V32.6009C20.2901 34.6354 21.1235 36.4844 22.4613 37.8255C23.8025 39.1667 25.6514 39.9967 27.686 39.9967C29.7205 39.9967 31.5694 39.1634 32.9106 37.8255C34.2485 36.4876 35.0818 34.6387 35.0818 32.6042V7.39583C35.0818 5.36133 34.2485 3.51237 32.9106 2.17122C31.5694 0.833333 29.7205 0 27.686 0C26.3708 0 25.1306 0.351563 24.0531 0.963542C22.9399 1.59505 22.0056 2.50977 21.3448 3.60677C21.1365 3.95508 21.2504 4.40755 21.5987 4.61589C21.947 4.82422 22.3995 4.71029 22.6078 4.36198C23.1352 3.48307 23.8871 2.75065 24.7823 2.24284C25.6417 1.75456 26.6345 1.47786 27.6892 1.47786C29.3168 1.47786 30.7979 2.14518 31.8722 3.2194C32.9464 4.29362 33.6137 5.77474 33.6137 7.40234V32.6107C33.6137 34.2383 32.9464 35.7194 31.8722 36.7936C30.7979 37.8678 29.3168 38.5352 27.6892 38.5352C26.0616 38.5352 24.5805 37.8678 23.5063 36.7936C22.432 35.7194 21.7647 34.2383 21.7647 32.6107V17.3535H21.7615ZM25.671 6.59831H4.25496C3.08309 6.59831 2.02189 7.07682 1.2504 7.84831C0.47892 8.61979 0.000404358 9.68099 0.000404358 10.8529C0.000404358 12.0247 0.47892 13.0859 1.2504 13.8574C2.02189 14.6289 3.08309 15.1074 4.25496 15.1074H25.671C26.8429 15.1074 27.9041 14.6289 28.6755 13.8574C29.447 13.0859 29.9255 12.0247 29.9255 10.8529C29.9255 9.68099 29.447 8.61979 28.6755 7.84831C27.9041 7.07682 26.8396 6.59831 25.671 6.59831ZM4.25496 8.07292H25.671C26.436 8.07292 27.1293 8.38542 27.6339 8.88997C28.1384 9.39453 28.4509 10.0879 28.4509 10.8529C28.4509 11.6178 28.1384 12.3112 27.6339 12.8158C27.1293 13.3203 26.436 13.6328 25.671 13.6328H4.25496C3.48999 13.6328 2.79663 13.3203 2.29207 12.8158C1.78751 12.3112 1.47501 11.6178 1.47501 10.8529C1.47501 10.0879 1.78751 9.39453 2.29207 8.88997C2.79663 8.38542 3.48999 8.07292 4.25496 8.07292ZM26.8852 30.1367V32.9883C26.8852 33.3952 27.2139 33.724 27.6208 33.724C28.0277 33.724 28.3565 33.3952 28.3565 32.9883V30.1009C28.7374 29.974 29.0792 29.7624 29.3559 29.4857C29.8149 29.0267 30.1013 28.3887 30.1013 27.6888C30.1013 26.9857 29.8181 26.3509 29.3559 25.8919C28.8969 25.4329 28.2589 25.1465 27.559 25.1465C26.8559 25.1465 26.2211 25.4297 25.7621 25.8919C25.3031 26.3509 25.0167 26.9889 25.0167 27.6888C25.0167 28.3919 25.2999 29.0267 25.7621 29.4857C26.0714 29.7917 26.4555 30.0195 26.8852 30.1367ZM26.807 26.9303C26.9991 26.7383 27.266 26.6178 27.5623 26.6178C27.8585 26.6178 28.1254 26.7383 28.3175 26.9303C28.5095 27.1224 28.63 27.3893 28.63 27.6855C28.63 27.9818 28.5095 28.2487 28.3175 28.4408C28.1254 28.6328 27.8585 28.7533 27.5623 28.7533C27.266 28.7533 26.9991 28.6328 26.807 28.4408C26.615 28.2487 26.4945 27.9818 26.4945 27.6855C26.4913 27.3926 26.6117 27.1257 26.807 26.9303Z" fill="#B85C6E" stroke="#B85C6E" stroke-width="0.00071"/>
</svg>
