<svg width="63" height="63" viewBox="0 0 63 63" fill="none" xmlns="http://www.w3.org/2000/svg">
<g clip-path="url(#clip0_95_220)">
<path d="M19.6875 43.8047H0.984375C0.984375 36.4219 7.67812 36.0282 9.74531 35.0438C11.025 34.4532 12.7969 33.3704 12.7969 32.386C12.7969 31.8938 12.6 31.5 12.4031 31.4016C9.94219 30.1219 9.45 25.6922 9.25312 25.6922C8.46562 25.6922 7.875 23.7235 7.875 22.3454C7.875 21.2625 8.17031 21.2625 8.76094 20.9672V20.7704C8.76094 17.2266 11.2219 14.175 14.7656 14.175C18.4078 14.175 20.7703 17.325 20.7703 20.8688V21.0657C21.3609 21.361 21.5578 21.5579 21.5578 22.6407C21.5578 24.0188 21.0656 25.8891 20.2781 25.8891C20.0813 25.8891 19.5891 30.0235 17.2266 31.4016C17.0297 31.5 16.8328 31.6969 16.8328 32.1891C16.8328 33.2719 18.7031 34.3547 19.9828 34.9454C21.2625 35.536 25.6922 36.1266 27.6609 39.7688" stroke="#8B1A2F" stroke-width="2.046"/>
<path d="M35.1422 40.0641C37.0125 36.225 41.5406 35.7329 43.1156 35.0438C44.3953 34.4532 46.1672 33.3704 46.1672 32.386C46.1672 31.8938 45.9703 31.5 45.7735 31.4016C43.3125 30.1219 42.9188 25.6922 42.7219 25.6922C41.9344 25.6922 41.3438 23.7235 41.3438 22.3454C41.3438 21.2625 41.6391 21.2625 42.2297 20.9672V20.7704C42.2297 17.2266 44.4938 14.175 48.136 14.175C51.7782 14.175 54.3375 17.325 54.3375 20.8688V21.0657C54.9281 21.361 55.125 21.5579 55.125 22.6407C55.125 24.0188 54.6328 25.8891 53.8453 25.8891C53.6485 25.8891 53.0578 30.0235 50.6953 31.4016C50.4985 31.5 50.3016 31.6969 50.3016 32.1891C50.3016 33.2719 52.1719 34.3547 53.4516 34.9454C55.0266 35.7329 62.0156 36.4219 62.0156 43.7063H42.6235" stroke="#8B1A2F" stroke-width="2.046"/>
<path fill-rule="evenodd" clip-rule="evenodd" d="M26.3813 40.95C27.661 40.3594 29.4329 39.2766 29.4329 38.2922C29.4329 37.8 29.236 37.4062 29.0391 37.3078C26.5782 36.0281 26.1844 31.5984 25.9875 31.5984C25.2 31.5984 24.6094 29.6297 24.6094 28.2516C24.6094 27.1687 24.9047 27.1688 25.4954 26.8734V26.775C25.4954 23.2312 27.7594 20.1797 31.4016 20.1797C35.0438 20.1797 37.6032 23.3297 37.6032 26.8734V27.0703C38.1938 27.3656 38.3907 27.5625 38.3907 28.6453C38.3907 30.0234 37.8985 31.8937 37.111 31.8937C36.9141 31.8937 36.3235 36.0281 33.961 37.4062C33.7641 37.5047 33.5672 37.7016 33.5672 38.1937C33.5672 39.2766 35.4375 40.3594 36.7172 40.95C38.2922 41.7375 45.2813 42.4266 45.2813 49.7109H17.6204C17.6204 42.3281 24.4125 41.9344 26.3813 40.95Z" stroke="#8B1A2F" stroke-width="2.046"/>
</g>
<defs>
<clipPath id="clip0_95_220">
<rect width="63" height="63" fill="white"/>
</clipPath>
</defs>
</svg>
