<svg width="52" height="36" viewBox="0 0 52 36" fill="none" xmlns="http://www.w3.org/2000/svg">
<path d="M3.73443 32.277L17.3455 17.847M47.29 32.277L33.6789 17.847M1.01221 8.22702L20.6803 19.8109C22.4266 20.8396 23.2996 21.354 24.2434 21.5536C25.0775 21.7304 25.9469 21.7304 26.781 21.5536C27.7248 21.354 28.5978 20.8396 30.3442 19.8109L50.0122 8.22702M9.72332 34.682H41.3011C44.3503 34.682 45.875 34.682 47.0395 34.1577C48.0639 33.6967 48.8969 32.9608 49.4188 32.0558C50.0122 31.0269 50.0122 29.6799 50.0122 26.986V8.70802C50.0122 6.01418 50.0122 4.66724 49.4188 3.63833C48.8969 2.73326 48.0639 1.99742 47.0395 1.53629C45.875 1.01202 44.3503 1.01202 41.3011 1.01202H9.72332C6.67416 1.01202 5.14955 1.01202 3.98493 1.53629C2.96047 1.99742 2.12758 2.73326 1.60562 3.63833C1.01221 4.66724 1.01221 6.01416 1.01221 8.70802V26.986C1.01221 29.6799 1.01221 31.0269 1.60562 32.0558C2.12758 32.9608 2.96047 33.6967 3.98493 34.1577C5.14955 34.682 6.67413 34.682 9.72332 34.682Z" stroke="#8B1A2F" stroke-width="2.024" stroke-linecap="round" stroke-linejoin="round"/>
</svg>
